{
 "cells": [
  {
   "cell_type": "markdown",
   "metadata": {},
   "source": [
    "# Clustering and Visualization of Phoebe dataset\n",
    "\n",
    "## Components\n",
    "* Create dataset with every row linked to the image it was generated from\n",
    "    * Will need to extract images from videos like this:\n",
    "    `ffmpeg -ss 00:23:00 -i video.mp4 -frames:v 1 out_time.jpg`\n"
   ]
  },
  {
   "cell_type": "code",
   "execution_count": 3,
   "metadata": {},
   "outputs": [
    {
     "name": "stdout",
     "output_type": "stream",
     "text": [
      "Archive:  Phoebe_dataset3.zip\n",
      "replace Phoebe_dataset/single_person_au_intensity/.DS_Store? [y]es, [n]o, [A]ll, [N]one, [r]ename: ^C\n"
     ]
    }
   ],
   "source": [
    "DATASET_FILE = \"Phoebe_dataset3.zip\"\n",
    "!unzip $DATASET_FILE;"
   ]
  },
  {
   "cell_type": "markdown",
   "metadata": {},
   "source": [
    "---\n",
    "## Load datasets\n",
    "### Helper functions"
   ]
  },
  {
   "cell_type": "code",
   "execution_count": 15,
   "metadata": {},
   "outputs": [
    {
     "name": "stdout",
     "output_type": "stream",
     "text": [
      "0:00:00\n",
      "ffmpeg version 4.2.3 Copyright (c) 2000-2020 the FFmpeg developers\n",
      "  built with Apple clang version 11.0.3 (clang-1103.0.32.59)\n",
      "  configuration: --prefix=/usr/local/Cellar/ffmpeg/4.2.3_1 --enable-shared --enable-pthreads --enable-version3 --enable-avresample --cc=clang --host-cflags=-fno-stack-check --host-ldflags= --enable-ffplay --enable-gnutls --enable-gpl --enable-libaom --enable-libbluray --enable-libdav1d --enable-libmp3lame --enable-libopus --enable-librubberband --enable-libsnappy --enable-libsrt --enable-libtesseract --enable-libtheora --enable-libvidstab --enable-libvorbis --enable-libvpx --enable-libwebp --enable-libx264 --enable-libx265 --enable-libxvid --enable-lzma --enable-libfontconfig --enable-libfreetype --enable-frei0r --enable-libass --enable-libopencore-amrnb --enable-libopencore-amrwb --enable-libopenjpeg --enable-librtmp --enable-libspeex --enable-libsoxr --enable-videotoolbox --disable-libjack --disable-indev=jack\n",
      "  libavutil      56. 31.100 / 56. 31.100\n",
      "  libavcodec     58. 54.100 / 58. 54.100\n",
      "  libavformat    58. 29.100 / 58. 29.100\n",
      "  libavdevice    58.  8.100 / 58.  8.100\n",
      "  libavfilter     7. 57.100 /  7. 57.100\n",
      "  libavresample   4.  0.  0 /  4.  0.  0\n",
      "  libswscale      5.  5.100 /  5.  5.100\n",
      "  libswresample   3.  5.100 /  3.  5.100\n",
      "  libpostproc    55.  5.100 / 55.  5.100\n",
      "Input #0, mov,mp4,m4a,3gp,3g2,mj2, from 'Phoebe_dataset/videos/train/6.mp4':\n",
      "  Metadata:\n",
      "    major_brand     : isom\n",
      "    minor_version   : 512\n",
      "    compatible_brands: isomiso2avc1mp41\n",
      "    encoder         : Lavf58.12.100\n",
      "  Duration: 00:00:00.92, start: 0.000000, bitrate: 295 kb/s\n",
      "    Stream #0:0(und): Video: h264 (Main) (avc1 / 0x31637661), yuv420p(tv, bt709), 854x480 [SAR 1:1 DAR 427:240], 285 kb/s, 25.07 fps, 23.98 tbr, 90k tbn, 47.95 tbc (default)\n",
      "    Metadata:\n",
      "      handler_name    : VideoHandler\n",
      "Stream mapping:\n",
      "  Stream #0:0 -> #0:0 (h264 (native) -> mjpeg (native))\n",
      "Press [q] to stop, [?] for help\n",
      "\u001b[1;34m[swscaler @ 0x7fedf4ba7000] \u001b[0m\u001b[0;33mdeprecated pixel format used, make sure you did set range correctly\n",
      "\u001b[0mOutput #0, image2, to '/Users/leo/workspace/cmpt419/CMPT419-A2/Phoebe_dataset/processed_images/6_0.0.jpg':\n",
      "  Metadata:\n",
      "    major_brand     : isom\n",
      "    minor_version   : 512\n",
      "    compatible_brands: isomiso2avc1mp41\n",
      "    encoder         : Lavf58.29.100\n",
      "    Stream #0:0(und): Video: mjpeg, yuvj420p(pc), 854x480 [SAR 1:1 DAR 427:240], q=2-31, 200 kb/s, 23.98 fps, 23.98 tbn, 23.98 tbc (default)\n",
      "    Metadata:\n",
      "      handler_name    : VideoHandler\n",
      "      encoder         : Lavc58.54.100 mjpeg\n",
      "    Side data:\n",
      "      cpb: bitrate max/min/avg: 0/0/200000 buffer size: 0 vbv_delay: -1\n",
      "frame=    1 fps=0.0 q=5.0 Lsize=N/A time=00:00:00.04 bitrate=N/A speed=2.67x    \n",
      "video:22kB audio:0kB subtitle:0kB other streams:0kB global headers:0kB muxing overhead: unknown\n",
      "0:00:00.040000\n",
      "ffmpeg version 4.2.3 Copyright (c) 2000-2020 the FFmpeg developers\n",
      "  built with Apple clang version 11.0.3 (clang-1103.0.32.59)\n",
      "  configuration: --prefix=/usr/local/Cellar/ffmpeg/4.2.3_1 --enable-shared --enable-pthreads --enable-version3 --enable-avresample --cc=clang --host-cflags=-fno-stack-check --host-ldflags= --enable-ffplay --enable-gnutls --enable-gpl --enable-libaom --enable-libbluray --enable-libdav1d --enable-libmp3lame --enable-libopus --enable-librubberband --enable-libsnappy --enable-libsrt --enable-libtesseract --enable-libtheora --enable-libvidstab --enable-libvorbis --enable-libvpx --enable-libwebp --enable-libx264 --enable-libx265 --enable-libxvid --enable-lzma --enable-libfontconfig --enable-libfreetype --enable-frei0r --enable-libass --enable-libopencore-amrnb --enable-libopencore-amrwb --enable-libopenjpeg --enable-librtmp --enable-libspeex --enable-libsoxr --enable-videotoolbox --disable-libjack --disable-indev=jack\n",
      "  libavutil      56. 31.100 / 56. 31.100\n",
      "  libavcodec     58. 54.100 / 58. 54.100\n",
      "  libavformat    58. 29.100 / 58. 29.100\n",
      "  libavdevice    58.  8.100 / 58.  8.100\n",
      "  libavfilter     7. 57.100 /  7. 57.100\n",
      "  libavresample   4.  0.  0 /  4.  0.  0\n",
      "  libswscale      5.  5.100 /  5.  5.100\n",
      "  libswresample   3.  5.100 /  3.  5.100\n",
      "  libpostproc    55.  5.100 / 55.  5.100\n",
      "Input #0, mov,mp4,m4a,3gp,3g2,mj2, from 'Phoebe_dataset/videos/train/6.mp4':\n",
      "  Metadata:\n",
      "    major_brand     : isom\n",
      "    minor_version   : 512\n",
      "    compatible_brands: isomiso2avc1mp41\n",
      "    encoder         : Lavf58.12.100\n",
      "  Duration: 00:00:00.92, start: 0.000000, bitrate: 295 kb/s\n",
      "    Stream #0:0(und): Video: h264 (Main) (avc1 / 0x31637661), yuv420p(tv, bt709), 854x480 [SAR 1:1 DAR 427:240], 285 kb/s, 25.07 fps, 23.98 tbr, 90k tbn, 47.95 tbc (default)\n",
      "    Metadata:\n",
      "      handler_name    : VideoHandler\n",
      "Stream mapping:\n",
      "  Stream #0:0 -> #0:0 (h264 (native) -> mjpeg (native))\n",
      "Press [q] to stop, [?] for help\n",
      "\u001b[1;34m[swscaler @ 0x7fbba3bb6000] \u001b[0m\u001b[0;33mdeprecated pixel format used, make sure you did set range correctly\n",
      "\u001b[0mOutput #0, image2, to '/Users/leo/workspace/cmpt419/CMPT419-A2/Phoebe_dataset/processed_images/6_0.04.jpg':\n",
      "  Metadata:\n",
      "    major_brand     : isom\n",
      "    minor_version   : 512\n",
      "    compatible_brands: isomiso2avc1mp41\n",
      "    encoder         : Lavf58.29.100\n",
      "    Stream #0:0(und): Video: mjpeg, yuvj420p(pc), 854x480 [SAR 1:1 DAR 427:240], q=2-31, 200 kb/s, 23.98 fps, 23.98 tbn, 23.98 tbc (default)\n",
      "    Metadata:\n",
      "      handler_name    : VideoHandler\n",
      "      encoder         : Lavc58.54.100 mjpeg\n",
      "    Side data:\n",
      "      cpb: bitrate max/min/avg: 0/0/200000 buffer size: 0 vbv_delay: -1\n",
      "frame=    1 fps=0.0 q=5.0 Lsize=N/A time=00:00:00.04 bitrate=N/A speed=2.42x    \n",
      "video:22kB audio:0kB subtitle:0kB other streams:0kB global headers:0kB muxing overhead: unknown\n",
      "0:00:00.080000\n",
      "ffmpeg version 4.2.3 Copyright (c) 2000-2020 the FFmpeg developers\n",
      "  built with Apple clang version 11.0.3 (clang-1103.0.32.59)\n",
      "  configuration: --prefix=/usr/local/Cellar/ffmpeg/4.2.3_1 --enable-shared --enable-pthreads --enable-version3 --enable-avresample --cc=clang --host-cflags=-fno-stack-check --host-ldflags= --enable-ffplay --enable-gnutls --enable-gpl --enable-libaom --enable-libbluray --enable-libdav1d --enable-libmp3lame --enable-libopus --enable-librubberband --enable-libsnappy --enable-libsrt --enable-libtesseract --enable-libtheora --enable-libvidstab --enable-libvorbis --enable-libvpx --enable-libwebp --enable-libx264 --enable-libx265 --enable-libxvid --enable-lzma --enable-libfontconfig --enable-libfreetype --enable-frei0r --enable-libass --enable-libopencore-amrnb --enable-libopencore-amrwb --enable-libopenjpeg --enable-librtmp --enable-libspeex --enable-libsoxr --enable-videotoolbox --disable-libjack --disable-indev=jack\n",
      "  libavutil      56. 31.100 / 56. 31.100\n",
      "  libavcodec     58. 54.100 / 58. 54.100\n",
      "  libavformat    58. 29.100 / 58. 29.100\n",
      "  libavdevice    58.  8.100 / 58.  8.100\n",
      "  libavfilter     7. 57.100 /  7. 57.100\n",
      "  libavresample   4.  0.  0 /  4.  0.  0\n",
      "  libswscale      5.  5.100 /  5.  5.100\n",
      "  libswresample   3.  5.100 /  3.  5.100\n",
      "  libpostproc    55.  5.100 / 55.  5.100\n",
      "Input #0, mov,mp4,m4a,3gp,3g2,mj2, from 'Phoebe_dataset/videos/train/6.mp4':\n",
      "  Metadata:\n",
      "    major_brand     : isom\n",
      "    minor_version   : 512\n",
      "    compatible_brands: isomiso2avc1mp41\n",
      "    encoder         : Lavf58.12.100\n",
      "  Duration: 00:00:00.92, start: 0.000000, bitrate: 295 kb/s\n",
      "    Stream #0:0(und): Video: h264 (Main) (avc1 / 0x31637661), yuv420p(tv, bt709), 854x480 [SAR 1:1 DAR 427:240], 285 kb/s, 25.07 fps, 23.98 tbr, 90k tbn, 47.95 tbc (default)\n",
      "    Metadata:\n",
      "      handler_name    : VideoHandler\n",
      "Stream mapping:\n",
      "  Stream #0:0 -> #0:0 (h264 (native) -> mjpeg (native))\n",
      "Press [q] to stop, [?] for help\n",
      "\u001b[1;34m[swscaler @ 0x7f9232bb6000] \u001b[0m\u001b[0;33mdeprecated pixel format used, make sure you did set range correctly\n",
      "\u001b[0mOutput #0, image2, to '/Users/leo/workspace/cmpt419/CMPT419-A2/Phoebe_dataset/processed_images/6_0.08.jpg':\n",
      "  Metadata:\n",
      "    major_brand     : isom\n",
      "    minor_version   : 512\n",
      "    compatible_brands: isomiso2avc1mp41\n",
      "    encoder         : Lavf58.29.100\n",
      "    Stream #0:0(und): Video: mjpeg, yuvj420p(pc), 854x480 [SAR 1:1 DAR 427:240], q=2-31, 200 kb/s, 23.98 fps, 23.98 tbn, 23.98 tbc (default)\n",
      "    Metadata:\n",
      "      handler_name    : VideoHandler\n",
      "      encoder         : Lavc58.54.100 mjpeg\n",
      "    Side data:\n",
      "      cpb: bitrate max/min/avg: 0/0/200000 buffer size: 0 vbv_delay: -1\n",
      "frame=    1 fps=0.0 q=5.1 Lsize=N/A time=00:00:00.04 bitrate=N/A speed=2.68x    \n",
      "video:22kB audio:0kB subtitle:0kB other streams:0kB global headers:0kB muxing overhead: unknown\n",
      "0:00:00.120000\n",
      "ffmpeg version 4.2.3 Copyright (c) 2000-2020 the FFmpeg developers\n",
      "  built with Apple clang version 11.0.3 (clang-1103.0.32.59)\n",
      "  configuration: --prefix=/usr/local/Cellar/ffmpeg/4.2.3_1 --enable-shared --enable-pthreads --enable-version3 --enable-avresample --cc=clang --host-cflags=-fno-stack-check --host-ldflags= --enable-ffplay --enable-gnutls --enable-gpl --enable-libaom --enable-libbluray --enable-libdav1d --enable-libmp3lame --enable-libopus --enable-librubberband --enable-libsnappy --enable-libsrt --enable-libtesseract --enable-libtheora --enable-libvidstab --enable-libvorbis --enable-libvpx --enable-libwebp --enable-libx264 --enable-libx265 --enable-libxvid --enable-lzma --enable-libfontconfig --enable-libfreetype --enable-frei0r --enable-libass --enable-libopencore-amrnb --enable-libopencore-amrwb --enable-libopenjpeg --enable-librtmp --enable-libspeex --enable-libsoxr --enable-videotoolbox --disable-libjack --disable-indev=jack\n",
      "  libavutil      56. 31.100 / 56. 31.100\n",
      "  libavcodec     58. 54.100 / 58. 54.100\n",
      "  libavformat    58. 29.100 / 58. 29.100\n",
      "  libavdevice    58.  8.100 / 58.  8.100\n",
      "  libavfilter     7. 57.100 /  7. 57.100\n",
      "  libavresample   4.  0.  0 /  4.  0.  0\n",
      "  libswscale      5.  5.100 /  5.  5.100\n",
      "  libswresample   3.  5.100 /  3.  5.100\n",
      "  libpostproc    55.  5.100 / 55.  5.100\n",
      "Input #0, mov,mp4,m4a,3gp,3g2,mj2, from 'Phoebe_dataset/videos/train/6.mp4':\n",
      "  Metadata:\n",
      "    major_brand     : isom\n",
      "    minor_version   : 512\n",
      "    compatible_brands: isomiso2avc1mp41\n",
      "    encoder         : Lavf58.12.100\n",
      "  Duration: 00:00:00.92, start: 0.000000, bitrate: 295 kb/s\n",
      "    Stream #0:0(und): Video: h264 (Main) (avc1 / 0x31637661), yuv420p(tv, bt709), 854x480 [SAR 1:1 DAR 427:240], 285 kb/s, 25.07 fps, 23.98 tbr, 90k tbn, 47.95 tbc (default)\n",
      "    Metadata:\n",
      "      handler_name    : VideoHandler\n",
      "Stream mapping:\n",
      "  Stream #0:0 -> #0:0 (h264 (native) -> mjpeg (native))\n",
      "Press [q] to stop, [?] for help\n",
      "\u001b[1;34m[swscaler @ 0x7fdfe899c000] \u001b[0m\u001b[0;33mdeprecated pixel format used, make sure you did set range correctly\n",
      "\u001b[0mOutput #0, image2, to '/Users/leo/workspace/cmpt419/CMPT419-A2/Phoebe_dataset/processed_images/6_0.12.jpg':\n",
      "  Metadata:\n",
      "    major_brand     : isom\n",
      "    minor_version   : 512\n",
      "    compatible_brands: isomiso2avc1mp41\n",
      "    encoder         : Lavf58.29.100\n",
      "    Stream #0:0(und): Video: mjpeg, yuvj420p(pc), 854x480 [SAR 1:1 DAR 427:240], q=2-31, 200 kb/s, 23.98 fps, 23.98 tbn, 23.98 tbc (default)\n",
      "    Metadata:\n",
      "      handler_name    : VideoHandler\n",
      "      encoder         : Lavc58.54.100 mjpeg\n",
      "    Side data:\n",
      "      cpb: bitrate max/min/avg: 0/0/200000 buffer size: 0 vbv_delay: -1\n",
      "frame=    1 fps=0.0 q=5.0 Lsize=N/A time=00:00:00.04 bitrate=N/A speed= 2.7x    \n",
      "video:22kB audio:0kB subtitle:0kB other streams:0kB global headers:0kB muxing overhead: unknown\n",
      "0:00:00.160000\n",
      "ffmpeg version 4.2.3 Copyright (c) 2000-2020 the FFmpeg developers\n",
      "  built with Apple clang version 11.0.3 (clang-1103.0.32.59)\n",
      "  configuration: --prefix=/usr/local/Cellar/ffmpeg/4.2.3_1 --enable-shared --enable-pthreads --enable-version3 --enable-avresample --cc=clang --host-cflags=-fno-stack-check --host-ldflags= --enable-ffplay --enable-gnutls --enable-gpl --enable-libaom --enable-libbluray --enable-libdav1d --enable-libmp3lame --enable-libopus --enable-librubberband --enable-libsnappy --enable-libsrt --enable-libtesseract --enable-libtheora --enable-libvidstab --enable-libvorbis --enable-libvpx --enable-libwebp --enable-libx264 --enable-libx265 --enable-libxvid --enable-lzma --enable-libfontconfig --enable-libfreetype --enable-frei0r --enable-libass --enable-libopencore-amrnb --enable-libopencore-amrwb --enable-libopenjpeg --enable-librtmp --enable-libspeex --enable-libsoxr --enable-videotoolbox --disable-libjack --disable-indev=jack\n",
      "  libavutil      56. 31.100 / 56. 31.100\n",
      "  libavcodec     58. 54.100 / 58. 54.100\n",
      "  libavformat    58. 29.100 / 58. 29.100\n",
      "  libavdevice    58.  8.100 / 58.  8.100\n",
      "  libavfilter     7. 57.100 /  7. 57.100\n",
      "  libavresample   4.  0.  0 /  4.  0.  0\n",
      "  libswscale      5.  5.100 /  5.  5.100\n",
      "  libswresample   3.  5.100 /  3.  5.100\n",
      "  libpostproc    55.  5.100 / 55.  5.100\n",
      "Input #0, mov,mp4,m4a,3gp,3g2,mj2, from 'Phoebe_dataset/videos/train/6.mp4':\n",
      "  Metadata:\n",
      "    major_brand     : isom\n",
      "    minor_version   : 512\n",
      "    compatible_brands: isomiso2avc1mp41\n",
      "    encoder         : Lavf58.12.100\n",
      "  Duration: 00:00:00.92, start: 0.000000, bitrate: 295 kb/s\n",
      "    Stream #0:0(und): Video: h264 (Main) (avc1 / 0x31637661), yuv420p(tv, bt709), 854x480 [SAR 1:1 DAR 427:240], 285 kb/s, 25.07 fps, 23.98 tbr, 90k tbn, 47.95 tbc (default)\n",
      "    Metadata:\n",
      "      handler_name    : VideoHandler\n",
      "Stream mapping:\n",
      "  Stream #0:0 -> #0:0 (h264 (native) -> mjpeg (native))\n",
      "Press [q] to stop, [?] for help\n",
      "\u001b[1;34m[swscaler @ 0x7ffd0799c000] \u001b[0m\u001b[0;33mdeprecated pixel format used, make sure you did set range correctly\n",
      "\u001b[0mOutput #0, image2, to '/Users/leo/workspace/cmpt419/CMPT419-A2/Phoebe_dataset/processed_images/6_0.16.jpg':\n",
      "  Metadata:\n",
      "    major_brand     : isom\n",
      "    minor_version   : 512\n",
      "    compatible_brands: isomiso2avc1mp41\n",
      "    encoder         : Lavf58.29.100\n",
      "    Stream #0:0(und): Video: mjpeg, yuvj420p(pc), 854x480 [SAR 1:1 DAR 427:240], q=2-31, 200 kb/s, 23.98 fps, 23.98 tbn, 23.98 tbc (default)\n",
      "    Metadata:\n",
      "      handler_name    : VideoHandler\n",
      "      encoder         : Lavc58.54.100 mjpeg\n",
      "    Side data:\n",
      "      cpb: bitrate max/min/avg: 0/0/200000 buffer size: 0 vbv_delay: -1\n",
      "frame=    1 fps=0.0 q=5.1 Lsize=N/A time=00:00:00.04 bitrate=N/A speed=2.69x    \n",
      "video:22kB audio:0kB subtitle:0kB other streams:0kB global headers:0kB muxing overhead: unknown\n",
      "0:00:00.199000\n",
      "ffmpeg version 4.2.3 Copyright (c) 2000-2020 the FFmpeg developers\n",
      "  built with Apple clang version 11.0.3 (clang-1103.0.32.59)\n",
      "  configuration: --prefix=/usr/local/Cellar/ffmpeg/4.2.3_1 --enable-shared --enable-pthreads --enable-version3 --enable-avresample --cc=clang --host-cflags=-fno-stack-check --host-ldflags= --enable-ffplay --enable-gnutls --enable-gpl --enable-libaom --enable-libbluray --enable-libdav1d --enable-libmp3lame --enable-libopus --enable-librubberband --enable-libsnappy --enable-libsrt --enable-libtesseract --enable-libtheora --enable-libvidstab --enable-libvorbis --enable-libvpx --enable-libwebp --enable-libx264 --enable-libx265 --enable-libxvid --enable-lzma --enable-libfontconfig --enable-libfreetype --enable-frei0r --enable-libass --enable-libopencore-amrnb --enable-libopencore-amrwb --enable-libopenjpeg --enable-librtmp --enable-libspeex --enable-libsoxr --enable-videotoolbox --disable-libjack --disable-indev=jack\n",
      "  libavutil      56. 31.100 / 56. 31.100\n",
      "  libavcodec     58. 54.100 / 58. 54.100\n",
      "  libavformat    58. 29.100 / 58. 29.100\n",
      "  libavdevice    58.  8.100 / 58.  8.100\n",
      "  libavfilter     7. 57.100 /  7. 57.100\n",
      "  libavresample   4.  0.  0 /  4.  0.  0\n",
      "  libswscale      5.  5.100 /  5.  5.100\n",
      "  libswresample   3.  5.100 /  3.  5.100\n",
      "  libpostproc    55.  5.100 / 55.  5.100\n",
      "Input #0, mov,mp4,m4a,3gp,3g2,mj2, from 'Phoebe_dataset/videos/train/6.mp4':\n",
      "  Metadata:\n",
      "    major_brand     : isom\n",
      "    minor_version   : 512\n",
      "    compatible_brands: isomiso2avc1mp41\n",
      "    encoder         : Lavf58.12.100\n",
      "  Duration: 00:00:00.92, start: 0.000000, bitrate: 295 kb/s\n",
      "    Stream #0:0(und): Video: h264 (Main) (avc1 / 0x31637661), yuv420p(tv, bt709), 854x480 [SAR 1:1 DAR 427:240], 285 kb/s, 25.07 fps, 23.98 tbr, 90k tbn, 47.95 tbc (default)\n",
      "    Metadata:\n",
      "      handler_name    : VideoHandler\n",
      "Stream mapping:\n",
      "  Stream #0:0 -> #0:0 (h264 (native) -> mjpeg (native))\n",
      "Press [q] to stop, [?] for help\n",
      "\u001b[1;34m[swscaler @ 0x7fa3809a7000] \u001b[0m\u001b[0;33mdeprecated pixel format used, make sure you did set range correctly\n",
      "\u001b[0mOutput #0, image2, to '/Users/leo/workspace/cmpt419/CMPT419-A2/Phoebe_dataset/processed_images/6_0.19899999999999998.jpg':\n",
      "  Metadata:\n",
      "    major_brand     : isom\n",
      "    minor_version   : 512\n",
      "    compatible_brands: isomiso2avc1mp41\n",
      "    encoder         : Lavf58.29.100\n",
      "    Stream #0:0(und): Video: mjpeg, yuvj420p(pc), 854x480 [SAR 1:1 DAR 427:240], q=2-31, 200 kb/s, 23.98 fps, 23.98 tbn, 23.98 tbc (default)\n",
      "    Metadata:\n",
      "      handler_name    : VideoHandler\n",
      "      encoder         : Lavc58.54.100 mjpeg\n",
      "    Side data:\n",
      "      cpb: bitrate max/min/avg: 0/0/200000 buffer size: 0 vbv_delay: -1\n",
      "frame=    1 fps=0.0 q=5.1 Lsize=N/A time=00:00:00.04 bitrate=N/A speed=2.66x    \n",
      "video:21kB audio:0kB subtitle:0kB other streams:0kB global headers:0kB muxing overhead: unknown\n",
      "0:00:00.239000\n",
      "ffmpeg version 4.2.3 Copyright (c) 2000-2020 the FFmpeg developers\n",
      "  built with Apple clang version 11.0.3 (clang-1103.0.32.59)\n",
      "  configuration: --prefix=/usr/local/Cellar/ffmpeg/4.2.3_1 --enable-shared --enable-pthreads --enable-version3 --enable-avresample --cc=clang --host-cflags=-fno-stack-check --host-ldflags= --enable-ffplay --enable-gnutls --enable-gpl --enable-libaom --enable-libbluray --enable-libdav1d --enable-libmp3lame --enable-libopus --enable-librubberband --enable-libsnappy --enable-libsrt --enable-libtesseract --enable-libtheora --enable-libvidstab --enable-libvorbis --enable-libvpx --enable-libwebp --enable-libx264 --enable-libx265 --enable-libxvid --enable-lzma --enable-libfontconfig --enable-libfreetype --enable-frei0r --enable-libass --enable-libopencore-amrnb --enable-libopencore-amrwb --enable-libopenjpeg --enable-librtmp --enable-libspeex --enable-libsoxr --enable-videotoolbox --disable-libjack --disable-indev=jack\n",
      "  libavutil      56. 31.100 / 56. 31.100\n",
      "  libavcodec     58. 54.100 / 58. 54.100\n",
      "  libavformat    58. 29.100 / 58. 29.100\n",
      "  libavdevice    58.  8.100 / 58.  8.100\n",
      "  libavfilter     7. 57.100 /  7. 57.100\n",
      "  libavresample   4.  0.  0 /  4.  0.  0\n",
      "  libswscale      5.  5.100 /  5.  5.100\n",
      "  libswresample   3.  5.100 /  3.  5.100\n",
      "  libpostproc    55.  5.100 / 55.  5.100\n",
      "Input #0, mov,mp4,m4a,3gp,3g2,mj2, from 'Phoebe_dataset/videos/train/6.mp4':\n",
      "  Metadata:\n",
      "    major_brand     : isom\n",
      "    minor_version   : 512\n",
      "    compatible_brands: isomiso2avc1mp41\n",
      "    encoder         : Lavf58.12.100\n",
      "  Duration: 00:00:00.92, start: 0.000000, bitrate: 295 kb/s\n",
      "    Stream #0:0(und): Video: h264 (Main) (avc1 / 0x31637661), yuv420p(tv, bt709), 854x480 [SAR 1:1 DAR 427:240], 285 kb/s, 25.07 fps, 23.98 tbr, 90k tbn, 47.95 tbc (default)\n",
      "    Metadata:\n",
      "      handler_name    : VideoHandler\n",
      "Stream mapping:\n",
      "  Stream #0:0 -> #0:0 (h264 (native) -> mjpeg (native))\n",
      "Press [q] to stop, [?] for help\n",
      "\u001b[1;34m[swscaler @ 0x7fcd3519c000] \u001b[0m\u001b[0;33mdeprecated pixel format used, make sure you did set range correctly\n",
      "\u001b[0mOutput #0, image2, to '/Users/leo/workspace/cmpt419/CMPT419-A2/Phoebe_dataset/processed_images/6_0.239.jpg':\n",
      "  Metadata:\n",
      "    major_brand     : isom\n",
      "    minor_version   : 512\n",
      "    compatible_brands: isomiso2avc1mp41\n",
      "    encoder         : Lavf58.29.100\n",
      "    Stream #0:0(und): Video: mjpeg, yuvj420p(pc), 854x480 [SAR 1:1 DAR 427:240], q=2-31, 200 kb/s, 23.98 fps, 23.98 tbn, 23.98 tbc (default)\n",
      "    Metadata:\n",
      "      handler_name    : VideoHandler\n",
      "      encoder         : Lavc58.54.100 mjpeg\n",
      "    Side data:\n",
      "      cpb: bitrate max/min/avg: 0/0/200000 buffer size: 0 vbv_delay: -1\n",
      "frame=    1 fps=0.0 q=5.1 Lsize=N/A time=00:00:00.04 bitrate=N/A speed=2.62x    \n",
      "video:21kB audio:0kB subtitle:0kB other streams:0kB global headers:0kB muxing overhead: unknown\n",
      "0:00:00.279000\n",
      "ffmpeg version 4.2.3 Copyright (c) 2000-2020 the FFmpeg developers\n",
      "  built with Apple clang version 11.0.3 (clang-1103.0.32.59)\n",
      "  configuration: --prefix=/usr/local/Cellar/ffmpeg/4.2.3_1 --enable-shared --enable-pthreads --enable-version3 --enable-avresample --cc=clang --host-cflags=-fno-stack-check --host-ldflags= --enable-ffplay --enable-gnutls --enable-gpl --enable-libaom --enable-libbluray --enable-libdav1d --enable-libmp3lame --enable-libopus --enable-librubberband --enable-libsnappy --enable-libsrt --enable-libtesseract --enable-libtheora --enable-libvidstab --enable-libvorbis --enable-libvpx --enable-libwebp --enable-libx264 --enable-libx265 --enable-libxvid --enable-lzma --enable-libfontconfig --enable-libfreetype --enable-frei0r --enable-libass --enable-libopencore-amrnb --enable-libopencore-amrwb --enable-libopenjpeg --enable-librtmp --enable-libspeex --enable-libsoxr --enable-videotoolbox --disable-libjack --disable-indev=jack\n",
      "  libavutil      56. 31.100 / 56. 31.100\n",
      "  libavcodec     58. 54.100 / 58. 54.100\n",
      "  libavformat    58. 29.100 / 58. 29.100\n",
      "  libavdevice    58.  8.100 / 58.  8.100\n",
      "  libavfilter     7. 57.100 /  7. 57.100\n",
      "  libavresample   4.  0.  0 /  4.  0.  0\n",
      "  libswscale      5.  5.100 /  5.  5.100\n",
      "  libswresample   3.  5.100 /  3.  5.100\n",
      "  libpostproc    55.  5.100 / 55.  5.100\n",
      "Input #0, mov,mp4,m4a,3gp,3g2,mj2, from 'Phoebe_dataset/videos/train/6.mp4':\n",
      "  Metadata:\n",
      "    major_brand     : isom\n",
      "    minor_version   : 512\n",
      "    compatible_brands: isomiso2avc1mp41\n",
      "    encoder         : Lavf58.12.100\n",
      "  Duration: 00:00:00.92, start: 0.000000, bitrate: 295 kb/s\n",
      "    Stream #0:0(und): Video: h264 (Main) (avc1 / 0x31637661), yuv420p(tv, bt709), 854x480 [SAR 1:1 DAR 427:240], 285 kb/s, 25.07 fps, 23.98 tbr, 90k tbn, 47.95 tbc (default)\n",
      "    Metadata:\n",
      "      handler_name    : VideoHandler\n",
      "Stream mapping:\n",
      "  Stream #0:0 -> #0:0 (h264 (native) -> mjpeg (native))\n",
      "Press [q] to stop, [?] for help\n",
      "\u001b[1;34m[swscaler @ 0x7fc504aab000] \u001b[0m\u001b[0;33mdeprecated pixel format used, make sure you did set range correctly\n",
      "\u001b[0mOutput #0, image2, to '/Users/leo/workspace/cmpt419/CMPT419-A2/Phoebe_dataset/processed_images/6_0.27899999999999997.jpg':\n",
      "  Metadata:\n",
      "    major_brand     : isom\n",
      "    minor_version   : 512\n",
      "    compatible_brands: isomiso2avc1mp41\n",
      "    encoder         : Lavf58.29.100\n",
      "    Stream #0:0(und): Video: mjpeg, yuvj420p(pc), 854x480 [SAR 1:1 DAR 427:240], q=2-31, 200 kb/s, 23.98 fps, 23.98 tbn, 23.98 tbc (default)\n",
      "    Metadata:\n",
      "      handler_name    : VideoHandler\n",
      "      encoder         : Lavc58.54.100 mjpeg\n",
      "    Side data:\n",
      "      cpb: bitrate max/min/avg: 0/0/200000 buffer size: 0 vbv_delay: -1\n",
      "frame=    1 fps=0.0 q=5.1 Lsize=N/A time=00:00:00.04 bitrate=N/A speed=2.52x    \n",
      "video:21kB audio:0kB subtitle:0kB other streams:0kB global headers:0kB muxing overhead: unknown\n",
      "0:00:00.319000\n",
      "ffmpeg version 4.2.3 Copyright (c) 2000-2020 the FFmpeg developers\n",
      "  built with Apple clang version 11.0.3 (clang-1103.0.32.59)\n",
      "  configuration: --prefix=/usr/local/Cellar/ffmpeg/4.2.3_1 --enable-shared --enable-pthreads --enable-version3 --enable-avresample --cc=clang --host-cflags=-fno-stack-check --host-ldflags= --enable-ffplay --enable-gnutls --enable-gpl --enable-libaom --enable-libbluray --enable-libdav1d --enable-libmp3lame --enable-libopus --enable-librubberband --enable-libsnappy --enable-libsrt --enable-libtesseract --enable-libtheora --enable-libvidstab --enable-libvorbis --enable-libvpx --enable-libwebp --enable-libx264 --enable-libx265 --enable-libxvid --enable-lzma --enable-libfontconfig --enable-libfreetype --enable-frei0r --enable-libass --enable-libopencore-amrnb --enable-libopencore-amrwb --enable-libopenjpeg --enable-librtmp --enable-libspeex --enable-libsoxr --enable-videotoolbox --disable-libjack --disable-indev=jack\n",
      "  libavutil      56. 31.100 / 56. 31.100\n",
      "  libavcodec     58. 54.100 / 58. 54.100\n",
      "  libavformat    58. 29.100 / 58. 29.100\n",
      "  libavdevice    58.  8.100 / 58.  8.100\n",
      "  libavfilter     7. 57.100 /  7. 57.100\n",
      "  libavresample   4.  0.  0 /  4.  0.  0\n",
      "  libswscale      5.  5.100 /  5.  5.100\n",
      "  libswresample   3.  5.100 /  3.  5.100\n",
      "  libpostproc    55.  5.100 / 55.  5.100\n",
      "Input #0, mov,mp4,m4a,3gp,3g2,mj2, from 'Phoebe_dataset/videos/train/6.mp4':\n",
      "  Metadata:\n",
      "    major_brand     : isom\n",
      "    minor_version   : 512\n",
      "    compatible_brands: isomiso2avc1mp41\n",
      "    encoder         : Lavf58.12.100\n",
      "  Duration: 00:00:00.92, start: 0.000000, bitrate: 295 kb/s\n",
      "    Stream #0:0(und): Video: h264 (Main) (avc1 / 0x31637661), yuv420p(tv, bt709), 854x480 [SAR 1:1 DAR 427:240], 285 kb/s, 25.07 fps, 23.98 tbr, 90k tbn, 47.95 tbc (default)\n",
      "    Metadata:\n",
      "      handler_name    : VideoHandler\n",
      "Stream mapping:\n",
      "  Stream #0:0 -> #0:0 (h264 (native) -> mjpeg (native))\n",
      "Press [q] to stop, [?] for help\n",
      "\u001b[1;34m[swscaler @ 0x7fc5c309c000] \u001b[0m\u001b[0;33mdeprecated pixel format used, make sure you did set range correctly\n",
      "\u001b[0mOutput #0, image2, to '/Users/leo/workspace/cmpt419/CMPT419-A2/Phoebe_dataset/processed_images/6_0.319.jpg':\n",
      "  Metadata:\n",
      "    major_brand     : isom\n",
      "    minor_version   : 512\n",
      "    compatible_brands: isomiso2avc1mp41\n",
      "    encoder         : Lavf58.29.100\n",
      "    Stream #0:0(und): Video: mjpeg, yuvj420p(pc), 854x480 [SAR 1:1 DAR 427:240], q=2-31, 200 kb/s, 23.98 fps, 23.98 tbn, 23.98 tbc (default)\n",
      "    Metadata:\n",
      "      handler_name    : VideoHandler\n",
      "      encoder         : Lavc58.54.100 mjpeg\n",
      "    Side data:\n",
      "      cpb: bitrate max/min/avg: 0/0/200000 buffer size: 0 vbv_delay: -1\n",
      "frame=    1 fps=0.0 q=5.1 Lsize=N/A time=00:00:00.04 bitrate=N/A speed=2.56x    \n",
      "video:21kB audio:0kB subtitle:0kB other streams:0kB global headers:0kB muxing overhead: unknown\n",
      "0:00:00.359000\n",
      "ffmpeg version 4.2.3 Copyright (c) 2000-2020 the FFmpeg developers\n",
      "  built with Apple clang version 11.0.3 (clang-1103.0.32.59)\n",
      "  configuration: --prefix=/usr/local/Cellar/ffmpeg/4.2.3_1 --enable-shared --enable-pthreads --enable-version3 --enable-avresample --cc=clang --host-cflags=-fno-stack-check --host-ldflags= --enable-ffplay --enable-gnutls --enable-gpl --enable-libaom --enable-libbluray --enable-libdav1d --enable-libmp3lame --enable-libopus --enable-librubberband --enable-libsnappy --enable-libsrt --enable-libtesseract --enable-libtheora --enable-libvidstab --enable-libvorbis --enable-libvpx --enable-libwebp --enable-libx264 --enable-libx265 --enable-libxvid --enable-lzma --enable-libfontconfig --enable-libfreetype --enable-frei0r --enable-libass --enable-libopencore-amrnb --enable-libopencore-amrwb --enable-libopenjpeg --enable-librtmp --enable-libspeex --enable-libsoxr --enable-videotoolbox --disable-libjack --disable-indev=jack\n",
      "  libavutil      56. 31.100 / 56. 31.100\n",
      "  libavcodec     58. 54.100 / 58. 54.100\n",
      "  libavformat    58. 29.100 / 58. 29.100\n",
      "  libavdevice    58.  8.100 / 58.  8.100\n",
      "  libavfilter     7. 57.100 /  7. 57.100\n",
      "  libavresample   4.  0.  0 /  4.  0.  0\n",
      "  libswscale      5.  5.100 /  5.  5.100\n",
      "  libswresample   3.  5.100 /  3.  5.100\n",
      "  libpostproc    55.  5.100 / 55.  5.100\n",
      "Input #0, mov,mp4,m4a,3gp,3g2,mj2, from 'Phoebe_dataset/videos/train/6.mp4':\n",
      "  Metadata:\n",
      "    major_brand     : isom\n",
      "    minor_version   : 512\n",
      "    compatible_brands: isomiso2avc1mp41\n",
      "    encoder         : Lavf58.12.100\n",
      "  Duration: 00:00:00.92, start: 0.000000, bitrate: 295 kb/s\n",
      "    Stream #0:0(und): Video: h264 (Main) (avc1 / 0x31637661), yuv420p(tv, bt709), 854x480 [SAR 1:1 DAR 427:240], 285 kb/s, 25.07 fps, 23.98 tbr, 90k tbn, 47.95 tbc (default)\n",
      "    Metadata:\n",
      "      handler_name    : VideoHandler\n",
      "Stream mapping:\n",
      "  Stream #0:0 -> #0:0 (h264 (native) -> mjpeg (native))\n",
      "Press [q] to stop, [?] for help\n",
      "\u001b[1;34m[swscaler @ 0x7fe4632a0000] \u001b[0m\u001b[0;33mdeprecated pixel format used, make sure you did set range correctly\n",
      "\u001b[0mOutput #0, image2, to '/Users/leo/workspace/cmpt419/CMPT419-A2/Phoebe_dataset/processed_images/6_0.359.jpg':\n",
      "  Metadata:\n",
      "    major_brand     : isom\n",
      "    minor_version   : 512\n",
      "    compatible_brands: isomiso2avc1mp41\n",
      "    encoder         : Lavf58.29.100\n",
      "    Stream #0:0(und): Video: mjpeg, yuvj420p(pc), 854x480 [SAR 1:1 DAR 427:240], q=2-31, 200 kb/s, 23.98 fps, 23.98 tbn, 23.98 tbc (default)\n",
      "    Metadata:\n",
      "      handler_name    : VideoHandler\n",
      "      encoder         : Lavc58.54.100 mjpeg\n",
      "    Side data:\n",
      "      cpb: bitrate max/min/avg: 0/0/200000 buffer size: 0 vbv_delay: -1\n",
      "frame=    1 fps=0.0 q=5.1 Lsize=N/A time=00:00:00.04 bitrate=N/A speed=2.39x    \n",
      "video:22kB audio:0kB subtitle:0kB other streams:0kB global headers:0kB muxing overhead: unknown\n",
      "0:00:00.399000\n",
      "ffmpeg version 4.2.3 Copyright (c) 2000-2020 the FFmpeg developers\n",
      "  built with Apple clang version 11.0.3 (clang-1103.0.32.59)\n",
      "  configuration: --prefix=/usr/local/Cellar/ffmpeg/4.2.3_1 --enable-shared --enable-pthreads --enable-version3 --enable-avresample --cc=clang --host-cflags=-fno-stack-check --host-ldflags= --enable-ffplay --enable-gnutls --enable-gpl --enable-libaom --enable-libbluray --enable-libdav1d --enable-libmp3lame --enable-libopus --enable-librubberband --enable-libsnappy --enable-libsrt --enable-libtesseract --enable-libtheora --enable-libvidstab --enable-libvorbis --enable-libvpx --enable-libwebp --enable-libx264 --enable-libx265 --enable-libxvid --enable-lzma --enable-libfontconfig --enable-libfreetype --enable-frei0r --enable-libass --enable-libopencore-amrnb --enable-libopencore-amrwb --enable-libopenjpeg --enable-librtmp --enable-libspeex --enable-libsoxr --enable-videotoolbox --disable-libjack --disable-indev=jack\n",
      "  libavutil      56. 31.100 / 56. 31.100\n",
      "  libavcodec     58. 54.100 / 58. 54.100\n",
      "  libavformat    58. 29.100 / 58. 29.100\n",
      "  libavdevice    58.  8.100 / 58.  8.100\n",
      "  libavfilter     7. 57.100 /  7. 57.100\n",
      "  libavresample   4.  0.  0 /  4.  0.  0\n",
      "  libswscale      5.  5.100 /  5.  5.100\n",
      "  libswresample   3.  5.100 /  3.  5.100\n",
      "  libpostproc    55.  5.100 / 55.  5.100\n",
      "Input #0, mov,mp4,m4a,3gp,3g2,mj2, from 'Phoebe_dataset/videos/train/6.mp4':\n",
      "  Metadata:\n",
      "    major_brand     : isom\n",
      "    minor_version   : 512\n",
      "    compatible_brands: isomiso2avc1mp41\n",
      "    encoder         : Lavf58.12.100\n",
      "  Duration: 00:00:00.92, start: 0.000000, bitrate: 295 kb/s\n",
      "    Stream #0:0(und): Video: h264 (Main) (avc1 / 0x31637661), yuv420p(tv, bt709), 854x480 [SAR 1:1 DAR 427:240], 285 kb/s, 25.07 fps, 23.98 tbr, 90k tbn, 47.95 tbc (default)\n",
      "    Metadata:\n",
      "      handler_name    : VideoHandler\n",
      "Stream mapping:\n",
      "  Stream #0:0 -> #0:0 (h264 (native) -> mjpeg (native))\n",
      "Press [q] to stop, [?] for help\n",
      "\u001b[1;34m[swscaler @ 0x7fb0422a0000] \u001b[0m\u001b[0;33mdeprecated pixel format used, make sure you did set range correctly\n",
      "\u001b[0mOutput #0, image2, to '/Users/leo/workspace/cmpt419/CMPT419-A2/Phoebe_dataset/processed_images/6_0.39899999999999997.jpg':\n",
      "  Metadata:\n",
      "    major_brand     : isom\n",
      "    minor_version   : 512\n",
      "    compatible_brands: isomiso2avc1mp41\n",
      "    encoder         : Lavf58.29.100\n",
      "    Stream #0:0(und): Video: mjpeg, yuvj420p(pc), 854x480 [SAR 1:1 DAR 427:240], q=2-31, 200 kb/s, 23.98 fps, 23.98 tbn, 23.98 tbc (default)\n",
      "    Metadata:\n",
      "      handler_name    : VideoHandler\n",
      "      encoder         : Lavc58.54.100 mjpeg\n",
      "    Side data:\n",
      "      cpb: bitrate max/min/avg: 0/0/200000 buffer size: 0 vbv_delay: -1\n",
      "frame=    1 fps=0.0 q=5.1 Lsize=N/A time=00:00:00.04 bitrate=N/A speed=2.22x    \n",
      "video:21kB audio:0kB subtitle:0kB other streams:0kB global headers:0kB muxing overhead: unknown\n",
      "0:00:00.439000\n",
      "ffmpeg version 4.2.3 Copyright (c) 2000-2020 the FFmpeg developers\n",
      "  built with Apple clang version 11.0.3 (clang-1103.0.32.59)\n",
      "  configuration: --prefix=/usr/local/Cellar/ffmpeg/4.2.3_1 --enable-shared --enable-pthreads --enable-version3 --enable-avresample --cc=clang --host-cflags=-fno-stack-check --host-ldflags= --enable-ffplay --enable-gnutls --enable-gpl --enable-libaom --enable-libbluray --enable-libdav1d --enable-libmp3lame --enable-libopus --enable-librubberband --enable-libsnappy --enable-libsrt --enable-libtesseract --enable-libtheora --enable-libvidstab --enable-libvorbis --enable-libvpx --enable-libwebp --enable-libx264 --enable-libx265 --enable-libxvid --enable-lzma --enable-libfontconfig --enable-libfreetype --enable-frei0r --enable-libass --enable-libopencore-amrnb --enable-libopencore-amrwb --enable-libopenjpeg --enable-librtmp --enable-libspeex --enable-libsoxr --enable-videotoolbox --disable-libjack --disable-indev=jack\n",
      "  libavutil      56. 31.100 / 56. 31.100\n",
      "  libavcodec     58. 54.100 / 58. 54.100\n",
      "  libavformat    58. 29.100 / 58. 29.100\n",
      "  libavdevice    58.  8.100 / 58.  8.100\n",
      "  libavfilter     7. 57.100 /  7. 57.100\n",
      "  libavresample   4.  0.  0 /  4.  0.  0\n",
      "  libswscale      5.  5.100 /  5.  5.100\n",
      "  libswresample   3.  5.100 /  3.  5.100\n",
      "  libpostproc    55.  5.100 / 55.  5.100\n",
      "Input #0, mov,mp4,m4a,3gp,3g2,mj2, from 'Phoebe_dataset/videos/train/6.mp4':\n",
      "  Metadata:\n",
      "    major_brand     : isom\n",
      "    minor_version   : 512\n",
      "    compatible_brands: isomiso2avc1mp41\n",
      "    encoder         : Lavf58.12.100\n",
      "  Duration: 00:00:00.92, start: 0.000000, bitrate: 295 kb/s\n",
      "    Stream #0:0(und): Video: h264 (Main) (avc1 / 0x31637661), yuv420p(tv, bt709), 854x480 [SAR 1:1 DAR 427:240], 285 kb/s, 25.07 fps, 23.98 tbr, 90k tbn, 47.95 tbc (default)\n",
      "    Metadata:\n",
      "      handler_name    : VideoHandler\n",
      "Stream mapping:\n",
      "  Stream #0:0 -> #0:0 (h264 (native) -> mjpeg (native))\n",
      "Press [q] to stop, [?] for help\n",
      "\u001b[1;34m[swscaler @ 0x7fc974aab000] \u001b[0m\u001b[0;33mdeprecated pixel format used, make sure you did set range correctly\n",
      "\u001b[0mOutput #0, image2, to '/Users/leo/workspace/cmpt419/CMPT419-A2/Phoebe_dataset/processed_images/6_0.439.jpg':\n",
      "  Metadata:\n",
      "    major_brand     : isom\n",
      "    minor_version   : 512\n",
      "    compatible_brands: isomiso2avc1mp41\n",
      "    encoder         : Lavf58.29.100\n",
      "    Stream #0:0(und): Video: mjpeg, yuvj420p(pc), 854x480 [SAR 1:1 DAR 427:240], q=2-31, 200 kb/s, 23.98 fps, 23.98 tbn, 23.98 tbc (default)\n",
      "    Metadata:\n",
      "      handler_name    : VideoHandler\n",
      "      encoder         : Lavc58.54.100 mjpeg\n",
      "    Side data:\n",
      "      cpb: bitrate max/min/avg: 0/0/200000 buffer size: 0 vbv_delay: -1\n",
      "frame=    1 fps=0.0 q=5.1 Lsize=N/A time=00:00:00.04 bitrate=N/A speed=2.36x    \n",
      "video:21kB audio:0kB subtitle:0kB other streams:0kB global headers:0kB muxing overhead: unknown\n",
      "0:00:00.479000\n",
      "ffmpeg version 4.2.3 Copyright (c) 2000-2020 the FFmpeg developers\n",
      "  built with Apple clang version 11.0.3 (clang-1103.0.32.59)\n",
      "  configuration: --prefix=/usr/local/Cellar/ffmpeg/4.2.3_1 --enable-shared --enable-pthreads --enable-version3 --enable-avresample --cc=clang --host-cflags=-fno-stack-check --host-ldflags= --enable-ffplay --enable-gnutls --enable-gpl --enable-libaom --enable-libbluray --enable-libdav1d --enable-libmp3lame --enable-libopus --enable-librubberband --enable-libsnappy --enable-libsrt --enable-libtesseract --enable-libtheora --enable-libvidstab --enable-libvorbis --enable-libvpx --enable-libwebp --enable-libx264 --enable-libx265 --enable-libxvid --enable-lzma --enable-libfontconfig --enable-libfreetype --enable-frei0r --enable-libass --enable-libopencore-amrnb --enable-libopencore-amrwb --enable-libopenjpeg --enable-librtmp --enable-libspeex --enable-libsoxr --enable-videotoolbox --disable-libjack --disable-indev=jack\n",
      "  libavutil      56. 31.100 / 56. 31.100\n",
      "  libavcodec     58. 54.100 / 58. 54.100\n",
      "  libavformat    58. 29.100 / 58. 29.100\n",
      "  libavdevice    58.  8.100 / 58.  8.100\n",
      "  libavfilter     7. 57.100 /  7. 57.100\n",
      "  libavresample   4.  0.  0 /  4.  0.  0\n",
      "  libswscale      5.  5.100 /  5.  5.100\n",
      "  libswresample   3.  5.100 /  3.  5.100\n",
      "  libpostproc    55.  5.100 / 55.  5.100\n",
      "Input #0, mov,mp4,m4a,3gp,3g2,mj2, from 'Phoebe_dataset/videos/train/6.mp4':\n",
      "  Metadata:\n",
      "    major_brand     : isom\n",
      "    minor_version   : 512\n",
      "    compatible_brands: isomiso2avc1mp41\n",
      "    encoder         : Lavf58.12.100\n",
      "  Duration: 00:00:00.92, start: 0.000000, bitrate: 295 kb/s\n",
      "    Stream #0:0(und): Video: h264 (Main) (avc1 / 0x31637661), yuv420p(tv, bt709), 854x480 [SAR 1:1 DAR 427:240], 285 kb/s, 25.07 fps, 23.98 tbr, 90k tbn, 47.95 tbc (default)\n",
      "    Metadata:\n",
      "      handler_name    : VideoHandler\n",
      "Stream mapping:\n",
      "  Stream #0:0 -> #0:0 (h264 (native) -> mjpeg (native))\n",
      "Press [q] to stop, [?] for help\n",
      "\u001b[1;34m[swscaler @ 0x7f8ad419c000] \u001b[0m\u001b[0;33mdeprecated pixel format used, make sure you did set range correctly\n",
      "\u001b[0mOutput #0, image2, to '/Users/leo/workspace/cmpt419/CMPT419-A2/Phoebe_dataset/processed_images/6_0.479.jpg':\n",
      "  Metadata:\n",
      "    major_brand     : isom\n",
      "    minor_version   : 512\n",
      "    compatible_brands: isomiso2avc1mp41\n",
      "    encoder         : Lavf58.29.100\n",
      "    Stream #0:0(und): Video: mjpeg, yuvj420p(pc), 854x480 [SAR 1:1 DAR 427:240], q=2-31, 200 kb/s, 23.98 fps, 23.98 tbn, 23.98 tbc (default)\n",
      "    Metadata:\n",
      "      handler_name    : VideoHandler\n",
      "      encoder         : Lavc58.54.100 mjpeg\n",
      "    Side data:\n",
      "      cpb: bitrate max/min/avg: 0/0/200000 buffer size: 0 vbv_delay: -1\n",
      "frame=    1 fps=0.0 q=5.1 Lsize=N/A time=00:00:00.08 bitrate=N/A speed=4.58x    \n",
      "video:22kB audio:0kB subtitle:0kB other streams:0kB global headers:0kB muxing overhead: unknown\n",
      "0:00:00.519000\n",
      "ffmpeg version 4.2.3 Copyright (c) 2000-2020 the FFmpeg developers\n",
      "  built with Apple clang version 11.0.3 (clang-1103.0.32.59)\n",
      "  configuration: --prefix=/usr/local/Cellar/ffmpeg/4.2.3_1 --enable-shared --enable-pthreads --enable-version3 --enable-avresample --cc=clang --host-cflags=-fno-stack-check --host-ldflags= --enable-ffplay --enable-gnutls --enable-gpl --enable-libaom --enable-libbluray --enable-libdav1d --enable-libmp3lame --enable-libopus --enable-librubberband --enable-libsnappy --enable-libsrt --enable-libtesseract --enable-libtheora --enable-libvidstab --enable-libvorbis --enable-libvpx --enable-libwebp --enable-libx264 --enable-libx265 --enable-libxvid --enable-lzma --enable-libfontconfig --enable-libfreetype --enable-frei0r --enable-libass --enable-libopencore-amrnb --enable-libopencore-amrwb --enable-libopenjpeg --enable-librtmp --enable-libspeex --enable-libsoxr --enable-videotoolbox --disable-libjack --disable-indev=jack\n",
      "  libavutil      56. 31.100 / 56. 31.100\n",
      "  libavcodec     58. 54.100 / 58. 54.100\n",
      "  libavformat    58. 29.100 / 58. 29.100\n",
      "  libavdevice    58.  8.100 / 58.  8.100\n",
      "  libavfilter     7. 57.100 /  7. 57.100\n",
      "  libavresample   4.  0.  0 /  4.  0.  0\n",
      "  libswscale      5.  5.100 /  5.  5.100\n",
      "  libswresample   3.  5.100 /  3.  5.100\n",
      "  libpostproc    55.  5.100 / 55.  5.100\n",
      "Input #0, mov,mp4,m4a,3gp,3g2,mj2, from 'Phoebe_dataset/videos/train/6.mp4':\n",
      "  Metadata:\n",
      "    major_brand     : isom\n",
      "    minor_version   : 512\n",
      "    compatible_brands: isomiso2avc1mp41\n",
      "    encoder         : Lavf58.12.100\n",
      "  Duration: 00:00:00.92, start: 0.000000, bitrate: 295 kb/s\n",
      "    Stream #0:0(und): Video: h264 (Main) (avc1 / 0x31637661), yuv420p(tv, bt709), 854x480 [SAR 1:1 DAR 427:240], 285 kb/s, 25.07 fps, 23.98 tbr, 90k tbn, 47.95 tbc (default)\n",
      "    Metadata:\n",
      "      handler_name    : VideoHandler\n",
      "Stream mapping:\n",
      "  Stream #0:0 -> #0:0 (h264 (native) -> mjpeg (native))\n",
      "Press [q] to stop, [?] for help\n",
      "\u001b[1;34m[swscaler @ 0x7fedff1a7000] \u001b[0m\u001b[0;33mdeprecated pixel format used, make sure you did set range correctly\n",
      "\u001b[0mOutput #0, image2, to '/Users/leo/workspace/cmpt419/CMPT419-A2/Phoebe_dataset/processed_images/6_0.519.jpg':\n",
      "  Metadata:\n",
      "    major_brand     : isom\n",
      "    minor_version   : 512\n",
      "    compatible_brands: isomiso2avc1mp41\n",
      "    encoder         : Lavf58.29.100\n",
      "    Stream #0:0(und): Video: mjpeg, yuvj420p(pc), 854x480 [SAR 1:1 DAR 427:240], q=2-31, 200 kb/s, 23.98 fps, 23.98 tbn, 23.98 tbc (default)\n",
      "    Metadata:\n",
      "      handler_name    : VideoHandler\n",
      "      encoder         : Lavc58.54.100 mjpeg\n",
      "    Side data:\n",
      "      cpb: bitrate max/min/avg: 0/0/200000 buffer size: 0 vbv_delay: -1\n",
      "frame=    1 fps=0.0 q=5.0 Lsize=N/A time=00:00:00.08 bitrate=N/A speed=4.67x    \n",
      "video:21kB audio:0kB subtitle:0kB other streams:0kB global headers:0kB muxing overhead: unknown\n",
      "0:00:00.559000\n",
      "ffmpeg version 4.2.3 Copyright (c) 2000-2020 the FFmpeg developers\n",
      "  built with Apple clang version 11.0.3 (clang-1103.0.32.59)\n",
      "  configuration: --prefix=/usr/local/Cellar/ffmpeg/4.2.3_1 --enable-shared --enable-pthreads --enable-version3 --enable-avresample --cc=clang --host-cflags=-fno-stack-check --host-ldflags= --enable-ffplay --enable-gnutls --enable-gpl --enable-libaom --enable-libbluray --enable-libdav1d --enable-libmp3lame --enable-libopus --enable-librubberband --enable-libsnappy --enable-libsrt --enable-libtesseract --enable-libtheora --enable-libvidstab --enable-libvorbis --enable-libvpx --enable-libwebp --enable-libx264 --enable-libx265 --enable-libxvid --enable-lzma --enable-libfontconfig --enable-libfreetype --enable-frei0r --enable-libass --enable-libopencore-amrnb --enable-libopencore-amrwb --enable-libopenjpeg --enable-librtmp --enable-libspeex --enable-libsoxr --enable-videotoolbox --disable-libjack --disable-indev=jack\n",
      "  libavutil      56. 31.100 / 56. 31.100\n",
      "  libavcodec     58. 54.100 / 58. 54.100\n",
      "  libavformat    58. 29.100 / 58. 29.100\n",
      "  libavdevice    58.  8.100 / 58.  8.100\n",
      "  libavfilter     7. 57.100 /  7. 57.100\n",
      "  libavresample   4.  0.  0 /  4.  0.  0\n",
      "  libswscale      5.  5.100 /  5.  5.100\n",
      "  libswresample   3.  5.100 /  3.  5.100\n",
      "  libpostproc    55.  5.100 / 55.  5.100\n",
      "Input #0, mov,mp4,m4a,3gp,3g2,mj2, from 'Phoebe_dataset/videos/train/6.mp4':\n",
      "  Metadata:\n",
      "    major_brand     : isom\n",
      "    minor_version   : 512\n",
      "    compatible_brands: isomiso2avc1mp41\n",
      "    encoder         : Lavf58.12.100\n",
      "  Duration: 00:00:00.92, start: 0.000000, bitrate: 295 kb/s\n",
      "    Stream #0:0(und): Video: h264 (Main) (avc1 / 0x31637661), yuv420p(tv, bt709), 854x480 [SAR 1:1 DAR 427:240], 285 kb/s, 25.07 fps, 23.98 tbr, 90k tbn, 47.95 tbc (default)\n",
      "    Metadata:\n",
      "      handler_name    : VideoHandler\n",
      "Stream mapping:\n",
      "  Stream #0:0 -> #0:0 (h264 (native) -> mjpeg (native))\n",
      "Press [q] to stop, [?] for help\n",
      "\u001b[1;34m[swscaler @ 0x7fad463ab000] \u001b[0m\u001b[0;33mdeprecated pixel format used, make sure you did set range correctly\n",
      "\u001b[0mOutput #0, image2, to '/Users/leo/workspace/cmpt419/CMPT419-A2/Phoebe_dataset/processed_images/6_0.5589999999999999.jpg':\n",
      "  Metadata:\n",
      "    major_brand     : isom\n",
      "    minor_version   : 512\n",
      "    compatible_brands: isomiso2avc1mp41\n",
      "    encoder         : Lavf58.29.100\n",
      "    Stream #0:0(und): Video: mjpeg, yuvj420p(pc), 854x480 [SAR 1:1 DAR 427:240], q=2-31, 200 kb/s, 23.98 fps, 23.98 tbn, 23.98 tbc (default)\n",
      "    Metadata:\n",
      "      handler_name    : VideoHandler\n",
      "      encoder         : Lavc58.54.100 mjpeg\n",
      "    Side data:\n",
      "      cpb: bitrate max/min/avg: 0/0/200000 buffer size: 0 vbv_delay: -1\n",
      "frame=    1 fps=0.0 q=5.0 Lsize=N/A time=00:00:00.08 bitrate=N/A speed=4.26x    \n",
      "video:21kB audio:0kB subtitle:0kB other streams:0kB global headers:0kB muxing overhead: unknown\n",
      "0:00:00.598000\n",
      "ffmpeg version 4.2.3 Copyright (c) 2000-2020 the FFmpeg developers\n",
      "  built with Apple clang version 11.0.3 (clang-1103.0.32.59)\n",
      "  configuration: --prefix=/usr/local/Cellar/ffmpeg/4.2.3_1 --enable-shared --enable-pthreads --enable-version3 --enable-avresample --cc=clang --host-cflags=-fno-stack-check --host-ldflags= --enable-ffplay --enable-gnutls --enable-gpl --enable-libaom --enable-libbluray --enable-libdav1d --enable-libmp3lame --enable-libopus --enable-librubberband --enable-libsnappy --enable-libsrt --enable-libtesseract --enable-libtheora --enable-libvidstab --enable-libvorbis --enable-libvpx --enable-libwebp --enable-libx264 --enable-libx265 --enable-libxvid --enable-lzma --enable-libfontconfig --enable-libfreetype --enable-frei0r --enable-libass --enable-libopencore-amrnb --enable-libopencore-amrwb --enable-libopenjpeg --enable-librtmp --enable-libspeex --enable-libsoxr --enable-videotoolbox --disable-libjack --disable-indev=jack\n",
      "  libavutil      56. 31.100 / 56. 31.100\n",
      "  libavcodec     58. 54.100 / 58. 54.100\n",
      "  libavformat    58. 29.100 / 58. 29.100\n",
      "  libavdevice    58.  8.100 / 58.  8.100\n",
      "  libavfilter     7. 57.100 /  7. 57.100\n",
      "  libavresample   4.  0.  0 /  4.  0.  0\n",
      "  libswscale      5.  5.100 /  5.  5.100\n",
      "  libswresample   3.  5.100 /  3.  5.100\n",
      "  libpostproc    55.  5.100 / 55.  5.100\n",
      "Input #0, mov,mp4,m4a,3gp,3g2,mj2, from 'Phoebe_dataset/videos/train/6.mp4':\n",
      "  Metadata:\n",
      "    major_brand     : isom\n",
      "    minor_version   : 512\n",
      "    compatible_brands: isomiso2avc1mp41\n",
      "    encoder         : Lavf58.12.100\n",
      "  Duration: 00:00:00.92, start: 0.000000, bitrate: 295 kb/s\n",
      "    Stream #0:0(und): Video: h264 (Main) (avc1 / 0x31637661), yuv420p(tv, bt709), 854x480 [SAR 1:1 DAR 427:240], 285 kb/s, 25.07 fps, 23.98 tbr, 90k tbn, 47.95 tbc (default)\n",
      "    Metadata:\n",
      "      handler_name    : VideoHandler\n",
      "Stream mapping:\n",
      "  Stream #0:0 -> #0:0 (h264 (native) -> mjpeg (native))\n",
      "Press [q] to stop, [?] for help\n",
      "\u001b[1;34m[swscaler @ 0x7ff8952a7000] \u001b[0m\u001b[0;33mdeprecated pixel format used, make sure you did set range correctly\n",
      "\u001b[0mOutput #0, image2, to '/Users/leo/workspace/cmpt419/CMPT419-A2/Phoebe_dataset/processed_images/6_0.598.jpg':\n",
      "  Metadata:\n",
      "    major_brand     : isom\n",
      "    minor_version   : 512\n",
      "    compatible_brands: isomiso2avc1mp41\n",
      "    encoder         : Lavf58.29.100\n",
      "    Stream #0:0(und): Video: mjpeg, yuvj420p(pc), 854x480 [SAR 1:1 DAR 427:240], q=2-31, 200 kb/s, 23.98 fps, 23.98 tbn, 23.98 tbc (default)\n",
      "    Metadata:\n",
      "      handler_name    : VideoHandler\n",
      "      encoder         : Lavc58.54.100 mjpeg\n",
      "    Side data:\n",
      "      cpb: bitrate max/min/avg: 0/0/200000 buffer size: 0 vbv_delay: -1\n",
      "frame=    1 fps=0.0 q=5.1 Lsize=N/A time=00:00:00.08 bitrate=N/A speed=4.53x    \n",
      "video:22kB audio:0kB subtitle:0kB other streams:0kB global headers:0kB muxing overhead: unknown\n",
      "0:00:00.638000\n",
      "ffmpeg version 4.2.3 Copyright (c) 2000-2020 the FFmpeg developers\n",
      "  built with Apple clang version 11.0.3 (clang-1103.0.32.59)\n",
      "  configuration: --prefix=/usr/local/Cellar/ffmpeg/4.2.3_1 --enable-shared --enable-pthreads --enable-version3 --enable-avresample --cc=clang --host-cflags=-fno-stack-check --host-ldflags= --enable-ffplay --enable-gnutls --enable-gpl --enable-libaom --enable-libbluray --enable-libdav1d --enable-libmp3lame --enable-libopus --enable-librubberband --enable-libsnappy --enable-libsrt --enable-libtesseract --enable-libtheora --enable-libvidstab --enable-libvorbis --enable-libvpx --enable-libwebp --enable-libx264 --enable-libx265 --enable-libxvid --enable-lzma --enable-libfontconfig --enable-libfreetype --enable-frei0r --enable-libass --enable-libopencore-amrnb --enable-libopencore-amrwb --enable-libopenjpeg --enable-librtmp --enable-libspeex --enable-libsoxr --enable-videotoolbox --disable-libjack --disable-indev=jack\n",
      "  libavutil      56. 31.100 / 56. 31.100\n",
      "  libavcodec     58. 54.100 / 58. 54.100\n",
      "  libavformat    58. 29.100 / 58. 29.100\n",
      "  libavdevice    58.  8.100 / 58.  8.100\n",
      "  libavfilter     7. 57.100 /  7. 57.100\n",
      "  libavresample   4.  0.  0 /  4.  0.  0\n",
      "  libswscale      5.  5.100 /  5.  5.100\n",
      "  libswresample   3.  5.100 /  3.  5.100\n",
      "  libpostproc    55.  5.100 / 55.  5.100\n",
      "Input #0, mov,mp4,m4a,3gp,3g2,mj2, from 'Phoebe_dataset/videos/train/6.mp4':\n",
      "  Metadata:\n",
      "    major_brand     : isom\n",
      "    minor_version   : 512\n",
      "    compatible_brands: isomiso2avc1mp41\n",
      "    encoder         : Lavf58.12.100\n",
      "  Duration: 00:00:00.92, start: 0.000000, bitrate: 295 kb/s\n",
      "    Stream #0:0(und): Video: h264 (Main) (avc1 / 0x31637661), yuv420p(tv, bt709), 854x480 [SAR 1:1 DAR 427:240], 285 kb/s, 25.07 fps, 23.98 tbr, 90k tbn, 47.95 tbc (default)\n",
      "    Metadata:\n",
      "      handler_name    : VideoHandler\n",
      "Stream mapping:\n",
      "  Stream #0:0 -> #0:0 (h264 (native) -> mjpeg (native))\n",
      "Press [q] to stop, [?] for help\n",
      "\u001b[1;34m[swscaler @ 0x7fd0f22a0000] \u001b[0m\u001b[0;33mdeprecated pixel format used, make sure you did set range correctly\n",
      "\u001b[0mOutput #0, image2, to '/Users/leo/workspace/cmpt419/CMPT419-A2/Phoebe_dataset/processed_images/6_0.638.jpg':\n",
      "  Metadata:\n",
      "    major_brand     : isom\n",
      "    minor_version   : 512\n",
      "    compatible_brands: isomiso2avc1mp41\n",
      "    encoder         : Lavf58.29.100\n",
      "    Stream #0:0(und): Video: mjpeg, yuvj420p(pc), 854x480 [SAR 1:1 DAR 427:240], q=2-31, 200 kb/s, 23.98 fps, 23.98 tbn, 23.98 tbc (default)\n",
      "    Metadata:\n",
      "      handler_name    : VideoHandler\n",
      "      encoder         : Lavc58.54.100 mjpeg\n",
      "    Side data:\n",
      "      cpb: bitrate max/min/avg: 0/0/200000 buffer size: 0 vbv_delay: -1\n",
      "frame=    1 fps=0.0 q=5.0 Lsize=N/A time=00:00:00.08 bitrate=N/A speed=4.54x    \n",
      "video:21kB audio:0kB subtitle:0kB other streams:0kB global headers:0kB muxing overhead: unknown\n",
      "0:00:00.678000\n",
      "ffmpeg version 4.2.3 Copyright (c) 2000-2020 the FFmpeg developers\n",
      "  built with Apple clang version 11.0.3 (clang-1103.0.32.59)\n",
      "  configuration: --prefix=/usr/local/Cellar/ffmpeg/4.2.3_1 --enable-shared --enable-pthreads --enable-version3 --enable-avresample --cc=clang --host-cflags=-fno-stack-check --host-ldflags= --enable-ffplay --enable-gnutls --enable-gpl --enable-libaom --enable-libbluray --enable-libdav1d --enable-libmp3lame --enable-libopus --enable-librubberband --enable-libsnappy --enable-libsrt --enable-libtesseract --enable-libtheora --enable-libvidstab --enable-libvorbis --enable-libvpx --enable-libwebp --enable-libx264 --enable-libx265 --enable-libxvid --enable-lzma --enable-libfontconfig --enable-libfreetype --enable-frei0r --enable-libass --enable-libopencore-amrnb --enable-libopencore-amrwb --enable-libopenjpeg --enable-librtmp --enable-libspeex --enable-libsoxr --enable-videotoolbox --disable-libjack --disable-indev=jack\n",
      "  libavutil      56. 31.100 / 56. 31.100\n",
      "  libavcodec     58. 54.100 / 58. 54.100\n",
      "  libavformat    58. 29.100 / 58. 29.100\n",
      "  libavdevice    58.  8.100 / 58.  8.100\n",
      "  libavfilter     7. 57.100 /  7. 57.100\n",
      "  libavresample   4.  0.  0 /  4.  0.  0\n",
      "  libswscale      5.  5.100 /  5.  5.100\n",
      "  libswresample   3.  5.100 /  3.  5.100\n",
      "  libpostproc    55.  5.100 / 55.  5.100\n",
      "Input #0, mov,mp4,m4a,3gp,3g2,mj2, from 'Phoebe_dataset/videos/train/6.mp4':\n",
      "  Metadata:\n",
      "    major_brand     : isom\n",
      "    minor_version   : 512\n",
      "    compatible_brands: isomiso2avc1mp41\n",
      "    encoder         : Lavf58.12.100\n",
      "  Duration: 00:00:00.92, start: 0.000000, bitrate: 295 kb/s\n",
      "    Stream #0:0(und): Video: h264 (Main) (avc1 / 0x31637661), yuv420p(tv, bt709), 854x480 [SAR 1:1 DAR 427:240], 285 kb/s, 25.07 fps, 23.98 tbr, 90k tbn, 47.95 tbc (default)\n",
      "    Metadata:\n",
      "      handler_name    : VideoHandler\n",
      "Stream mapping:\n",
      "  Stream #0:0 -> #0:0 (h264 (native) -> mjpeg (native))\n",
      "Press [q] to stop, [?] for help\n",
      "\u001b[1;34m[swscaler @ 0x7fe438ba6000] \u001b[0m\u001b[0;33mdeprecated pixel format used, make sure you did set range correctly\n",
      "\u001b[0mOutput #0, image2, to '/Users/leo/workspace/cmpt419/CMPT419-A2/Phoebe_dataset/processed_images/6_0.6779999999999999.jpg':\n",
      "  Metadata:\n",
      "    major_brand     : isom\n",
      "    minor_version   : 512\n",
      "    compatible_brands: isomiso2avc1mp41\n",
      "    encoder         : Lavf58.29.100\n",
      "    Stream #0:0(und): Video: mjpeg, yuvj420p(pc), 854x480 [SAR 1:1 DAR 427:240], q=2-31, 200 kb/s, 23.98 fps, 23.98 tbn, 23.98 tbc (default)\n",
      "    Metadata:\n",
      "      handler_name    : VideoHandler\n",
      "      encoder         : Lavc58.54.100 mjpeg\n",
      "    Side data:\n",
      "      cpb: bitrate max/min/avg: 0/0/200000 buffer size: 0 vbv_delay: -1\n",
      "frame=    1 fps=0.0 q=5.0 Lsize=N/A time=00:00:00.08 bitrate=N/A speed=2.33x    \n",
      "video:21kB audio:0kB subtitle:0kB other streams:0kB global headers:0kB muxing overhead: unknown\n",
      "0:00:00.718000\n",
      "ffmpeg version 4.2.3 Copyright (c) 2000-2020 the FFmpeg developers\n",
      "  built with Apple clang version 11.0.3 (clang-1103.0.32.59)\n",
      "  configuration: --prefix=/usr/local/Cellar/ffmpeg/4.2.3_1 --enable-shared --enable-pthreads --enable-version3 --enable-avresample --cc=clang --host-cflags=-fno-stack-check --host-ldflags= --enable-ffplay --enable-gnutls --enable-gpl --enable-libaom --enable-libbluray --enable-libdav1d --enable-libmp3lame --enable-libopus --enable-librubberband --enable-libsnappy --enable-libsrt --enable-libtesseract --enable-libtheora --enable-libvidstab --enable-libvorbis --enable-libvpx --enable-libwebp --enable-libx264 --enable-libx265 --enable-libxvid --enable-lzma --enable-libfontconfig --enable-libfreetype --enable-frei0r --enable-libass --enable-libopencore-amrnb --enable-libopencore-amrwb --enable-libopenjpeg --enable-librtmp --enable-libspeex --enable-libsoxr --enable-videotoolbox --disable-libjack --disable-indev=jack\n",
      "  libavutil      56. 31.100 / 56. 31.100\n",
      "  libavcodec     58. 54.100 / 58. 54.100\n",
      "  libavformat    58. 29.100 / 58. 29.100\n",
      "  libavdevice    58.  8.100 / 58.  8.100\n",
      "  libavfilter     7. 57.100 /  7. 57.100\n",
      "  libavresample   4.  0.  0 /  4.  0.  0\n",
      "  libswscale      5.  5.100 /  5.  5.100\n",
      "  libswresample   3.  5.100 /  3.  5.100\n",
      "  libpostproc    55.  5.100 / 55.  5.100\n",
      "Input #0, mov,mp4,m4a,3gp,3g2,mj2, from 'Phoebe_dataset/videos/train/6.mp4':\n",
      "  Metadata:\n",
      "    major_brand     : isom\n",
      "    minor_version   : 512\n",
      "    compatible_brands: isomiso2avc1mp41\n",
      "    encoder         : Lavf58.12.100\n",
      "  Duration: 00:00:00.92, start: 0.000000, bitrate: 295 kb/s\n",
      "    Stream #0:0(und): Video: h264 (Main) (avc1 / 0x31637661), yuv420p(tv, bt709), 854x480 [SAR 1:1 DAR 427:240], 285 kb/s, 25.07 fps, 23.98 tbr, 90k tbn, 47.95 tbc (default)\n",
      "    Metadata:\n",
      "      handler_name    : VideoHandler\n",
      "Stream mapping:\n",
      "  Stream #0:0 -> #0:0 (h264 (native) -> mjpeg (native))\n",
      "Press [q] to stop, [?] for help\n",
      "\u001b[1;34m[swscaler @ 0x7feb633a6000] \u001b[0m\u001b[0;33mdeprecated pixel format used, make sure you did set range correctly\n",
      "\u001b[0mOutput #0, image2, to '/Users/leo/workspace/cmpt419/CMPT419-A2/Phoebe_dataset/processed_images/6_0.718.jpg':\n",
      "  Metadata:\n",
      "    major_brand     : isom\n",
      "    minor_version   : 512\n",
      "    compatible_brands: isomiso2avc1mp41\n",
      "    encoder         : Lavf58.29.100\n",
      "    Stream #0:0(und): Video: mjpeg, yuvj420p(pc), 854x480 [SAR 1:1 DAR 427:240], q=2-31, 200 kb/s, 23.98 fps, 23.98 tbn, 23.98 tbc (default)\n",
      "    Metadata:\n",
      "      handler_name    : VideoHandler\n",
      "      encoder         : Lavc58.54.100 mjpeg\n",
      "    Side data:\n",
      "      cpb: bitrate max/min/avg: 0/0/200000 buffer size: 0 vbv_delay: -1\n",
      "frame=    1 fps=0.0 q=5.0 Lsize=N/A time=00:00:00.08 bitrate=N/A speed=3.07x    \n",
      "video:21kB audio:0kB subtitle:0kB other streams:0kB global headers:0kB muxing overhead: unknown\n",
      "0:00:00.758000\n",
      "ffmpeg version 4.2.3 Copyright (c) 2000-2020 the FFmpeg developers\n",
      "  built with Apple clang version 11.0.3 (clang-1103.0.32.59)\n",
      "  configuration: --prefix=/usr/local/Cellar/ffmpeg/4.2.3_1 --enable-shared --enable-pthreads --enable-version3 --enable-avresample --cc=clang --host-cflags=-fno-stack-check --host-ldflags= --enable-ffplay --enable-gnutls --enable-gpl --enable-libaom --enable-libbluray --enable-libdav1d --enable-libmp3lame --enable-libopus --enable-librubberband --enable-libsnappy --enable-libsrt --enable-libtesseract --enable-libtheora --enable-libvidstab --enable-libvorbis --enable-libvpx --enable-libwebp --enable-libx264 --enable-libx265 --enable-libxvid --enable-lzma --enable-libfontconfig --enable-libfreetype --enable-frei0r --enable-libass --enable-libopencore-amrnb --enable-libopencore-amrwb --enable-libopenjpeg --enable-librtmp --enable-libspeex --enable-libsoxr --enable-videotoolbox --disable-libjack --disable-indev=jack\n",
      "  libavutil      56. 31.100 / 56. 31.100\n",
      "  libavcodec     58. 54.100 / 58. 54.100\n",
      "  libavformat    58. 29.100 / 58. 29.100\n",
      "  libavdevice    58.  8.100 / 58.  8.100\n",
      "  libavfilter     7. 57.100 /  7. 57.100\n",
      "  libavresample   4.  0.  0 /  4.  0.  0\n",
      "  libswscale      5.  5.100 /  5.  5.100\n",
      "  libswresample   3.  5.100 /  3.  5.100\n",
      "  libpostproc    55.  5.100 / 55.  5.100\n",
      "Input #0, mov,mp4,m4a,3gp,3g2,mj2, from 'Phoebe_dataset/videos/train/6.mp4':\n",
      "  Metadata:\n",
      "    major_brand     : isom\n",
      "    minor_version   : 512\n",
      "    compatible_brands: isomiso2avc1mp41\n",
      "    encoder         : Lavf58.12.100\n",
      "  Duration: 00:00:00.92, start: 0.000000, bitrate: 295 kb/s\n",
      "    Stream #0:0(und): Video: h264 (Main) (avc1 / 0x31637661), yuv420p(tv, bt709), 854x480 [SAR 1:1 DAR 427:240], 285 kb/s, 25.07 fps, 23.98 tbr, 90k tbn, 47.95 tbc (default)\n",
      "    Metadata:\n",
      "      handler_name    : VideoHandler\n",
      "Stream mapping:\n",
      "  Stream #0:0 -> #0:0 (h264 (native) -> mjpeg (native))\n",
      "Press [q] to stop, [?] for help\n",
      "\u001b[1;34m[swscaler @ 0x7fd49dba7000] \u001b[0m\u001b[0;33mdeprecated pixel format used, make sure you did set range correctly\n",
      "\u001b[0mOutput #0, image2, to '/Users/leo/workspace/cmpt419/CMPT419-A2/Phoebe_dataset/processed_images/6_0.758.jpg':\n",
      "  Metadata:\n",
      "    major_brand     : isom\n",
      "    minor_version   : 512\n",
      "    compatible_brands: isomiso2avc1mp41\n",
      "    encoder         : Lavf58.29.100\n",
      "    Stream #0:0(und): Video: mjpeg, yuvj420p(pc), 854x480 [SAR 1:1 DAR 427:240], q=2-31, 200 kb/s, 23.98 fps, 23.98 tbn, 23.98 tbc (default)\n",
      "    Metadata:\n",
      "      handler_name    : VideoHandler\n",
      "      encoder         : Lavc58.54.100 mjpeg\n",
      "    Side data:\n",
      "      cpb: bitrate max/min/avg: 0/0/200000 buffer size: 0 vbv_delay: -1\n",
      "frame=    1 fps=0.0 q=5.0 Lsize=N/A time=00:00:00.08 bitrate=N/A speed=4.13x    \n",
      "video:21kB audio:0kB subtitle:0kB other streams:0kB global headers:0kB muxing overhead: unknown\n",
      "0:00:00.798000\n",
      "ffmpeg version 4.2.3 Copyright (c) 2000-2020 the FFmpeg developers\n",
      "  built with Apple clang version 11.0.3 (clang-1103.0.32.59)\n",
      "  configuration: --prefix=/usr/local/Cellar/ffmpeg/4.2.3_1 --enable-shared --enable-pthreads --enable-version3 --enable-avresample --cc=clang --host-cflags=-fno-stack-check --host-ldflags= --enable-ffplay --enable-gnutls --enable-gpl --enable-libaom --enable-libbluray --enable-libdav1d --enable-libmp3lame --enable-libopus --enable-librubberband --enable-libsnappy --enable-libsrt --enable-libtesseract --enable-libtheora --enable-libvidstab --enable-libvorbis --enable-libvpx --enable-libwebp --enable-libx264 --enable-libx265 --enable-libxvid --enable-lzma --enable-libfontconfig --enable-libfreetype --enable-frei0r --enable-libass --enable-libopencore-amrnb --enable-libopencore-amrwb --enable-libopenjpeg --enable-librtmp --enable-libspeex --enable-libsoxr --enable-videotoolbox --disable-libjack --disable-indev=jack\n",
      "  libavutil      56. 31.100 / 56. 31.100\n",
      "  libavcodec     58. 54.100 / 58. 54.100\n",
      "  libavformat    58. 29.100 / 58. 29.100\n",
      "  libavdevice    58.  8.100 / 58.  8.100\n",
      "  libavfilter     7. 57.100 /  7. 57.100\n",
      "  libavresample   4.  0.  0 /  4.  0.  0\n",
      "  libswscale      5.  5.100 /  5.  5.100\n",
      "  libswresample   3.  5.100 /  3.  5.100\n",
      "  libpostproc    55.  5.100 / 55.  5.100\n",
      "Input #0, mov,mp4,m4a,3gp,3g2,mj2, from 'Phoebe_dataset/videos/train/6.mp4':\n",
      "  Metadata:\n",
      "    major_brand     : isom\n",
      "    minor_version   : 512\n",
      "    compatible_brands: isomiso2avc1mp41\n",
      "    encoder         : Lavf58.12.100\n",
      "  Duration: 00:00:00.92, start: 0.000000, bitrate: 295 kb/s\n",
      "    Stream #0:0(und): Video: h264 (Main) (avc1 / 0x31637661), yuv420p(tv, bt709), 854x480 [SAR 1:1 DAR 427:240], 285 kb/s, 25.07 fps, 23.98 tbr, 90k tbn, 47.95 tbc (default)\n",
      "    Metadata:\n",
      "      handler_name    : VideoHandler\n",
      "Stream mapping:\n",
      "  Stream #0:0 -> #0:0 (h264 (native) -> mjpeg (native))\n",
      "Press [q] to stop, [?] for help\n",
      "\u001b[1;34m[swscaler @ 0x7fd842397000] \u001b[0m\u001b[0;33mdeprecated pixel format used, make sure you did set range correctly\n",
      "\u001b[0mOutput #0, image2, to '/Users/leo/workspace/cmpt419/CMPT419-A2/Phoebe_dataset/processed_images/6_0.7979999999999999.jpg':\n",
      "  Metadata:\n",
      "    major_brand     : isom\n",
      "    minor_version   : 512\n",
      "    compatible_brands: isomiso2avc1mp41\n",
      "    encoder         : Lavf58.29.100\n",
      "    Stream #0:0(und): Video: mjpeg, yuvj420p(pc), 854x480 [SAR 1:1 DAR 427:240], q=2-31, 200 kb/s, 23.98 fps, 23.98 tbn, 23.98 tbc (default)\n",
      "    Metadata:\n",
      "      handler_name    : VideoHandler\n",
      "      encoder         : Lavc58.54.100 mjpeg\n",
      "    Side data:\n",
      "      cpb: bitrate max/min/avg: 0/0/200000 buffer size: 0 vbv_delay: -1\n",
      "frame=    1 fps=0.0 q=5.0 Lsize=N/A time=00:00:00.08 bitrate=N/A speed=4.27x    \n",
      "video:21kB audio:0kB subtitle:0kB other streams:0kB global headers:0kB muxing overhead: unknown\n",
      "0:00:00.838000\n",
      "ffmpeg version 4.2.3 Copyright (c) 2000-2020 the FFmpeg developers\n",
      "  built with Apple clang version 11.0.3 (clang-1103.0.32.59)\n",
      "  configuration: --prefix=/usr/local/Cellar/ffmpeg/4.2.3_1 --enable-shared --enable-pthreads --enable-version3 --enable-avresample --cc=clang --host-cflags=-fno-stack-check --host-ldflags= --enable-ffplay --enable-gnutls --enable-gpl --enable-libaom --enable-libbluray --enable-libdav1d --enable-libmp3lame --enable-libopus --enable-librubberband --enable-libsnappy --enable-libsrt --enable-libtesseract --enable-libtheora --enable-libvidstab --enable-libvorbis --enable-libvpx --enable-libwebp --enable-libx264 --enable-libx265 --enable-libxvid --enable-lzma --enable-libfontconfig --enable-libfreetype --enable-frei0r --enable-libass --enable-libopencore-amrnb --enable-libopencore-amrwb --enable-libopenjpeg --enable-librtmp --enable-libspeex --enable-libsoxr --enable-videotoolbox --disable-libjack --disable-indev=jack\n",
      "  libavutil      56. 31.100 / 56. 31.100\n",
      "  libavcodec     58. 54.100 / 58. 54.100\n",
      "  libavformat    58. 29.100 / 58. 29.100\n",
      "  libavdevice    58.  8.100 / 58.  8.100\n",
      "  libavfilter     7. 57.100 /  7. 57.100\n",
      "  libavresample   4.  0.  0 /  4.  0.  0\n",
      "  libswscale      5.  5.100 /  5.  5.100\n",
      "  libswresample   3.  5.100 /  3.  5.100\n",
      "  libpostproc    55.  5.100 / 55.  5.100\n",
      "Input #0, mov,mp4,m4a,3gp,3g2,mj2, from 'Phoebe_dataset/videos/train/6.mp4':\n",
      "  Metadata:\n",
      "    major_brand     : isom\n",
      "    minor_version   : 512\n",
      "    compatible_brands: isomiso2avc1mp41\n",
      "    encoder         : Lavf58.12.100\n",
      "  Duration: 00:00:00.92, start: 0.000000, bitrate: 295 kb/s\n",
      "    Stream #0:0(und): Video: h264 (Main) (avc1 / 0x31637661), yuv420p(tv, bt709), 854x480 [SAR 1:1 DAR 427:240], 285 kb/s, 25.07 fps, 23.98 tbr, 90k tbn, 47.95 tbc (default)\n",
      "    Metadata:\n",
      "      handler_name    : VideoHandler\n",
      "Stream mapping:\n",
      "  Stream #0:0 -> #0:0 (h264 (native) -> mjpeg (native))\n",
      "Press [q] to stop, [?] for help\n",
      "\u001b[1;34m[swscaler @ 0x7fe34139b000] \u001b[0m\u001b[0;33mdeprecated pixel format used, make sure you did set range correctly\n",
      "\u001b[0mOutput #0, image2, to '/Users/leo/workspace/cmpt419/CMPT419-A2/Phoebe_dataset/processed_images/6_0.838.jpg':\n",
      "  Metadata:\n",
      "    major_brand     : isom\n",
      "    minor_version   : 512\n",
      "    compatible_brands: isomiso2avc1mp41\n",
      "    encoder         : Lavf58.29.100\n",
      "    Stream #0:0(und): Video: mjpeg, yuvj420p(pc), 854x480 [SAR 1:1 DAR 427:240], q=2-31, 200 kb/s, 23.98 fps, 23.98 tbn, 23.98 tbc (default)\n",
      "    Metadata:\n",
      "      handler_name    : VideoHandler\n",
      "      encoder         : Lavc58.54.100 mjpeg\n",
      "    Side data:\n",
      "      cpb: bitrate max/min/avg: 0/0/200000 buffer size: 0 vbv_delay: -1\n",
      "frame=    1 fps=0.0 q=5.0 Lsize=N/A time=00:00:00.08 bitrate=N/A speed=3.71x    \n",
      "video:21kB audio:0kB subtitle:0kB other streams:0kB global headers:0kB muxing overhead: unknown\n",
      "0:00:00.878000\n",
      "ffmpeg version 4.2.3 Copyright (c) 2000-2020 the FFmpeg developers\n",
      "  built with Apple clang version 11.0.3 (clang-1103.0.32.59)\n",
      "  configuration: --prefix=/usr/local/Cellar/ffmpeg/4.2.3_1 --enable-shared --enable-pthreads --enable-version3 --enable-avresample --cc=clang --host-cflags=-fno-stack-check --host-ldflags= --enable-ffplay --enable-gnutls --enable-gpl --enable-libaom --enable-libbluray --enable-libdav1d --enable-libmp3lame --enable-libopus --enable-librubberband --enable-libsnappy --enable-libsrt --enable-libtesseract --enable-libtheora --enable-libvidstab --enable-libvorbis --enable-libvpx --enable-libwebp --enable-libx264 --enable-libx265 --enable-libxvid --enable-lzma --enable-libfontconfig --enable-libfreetype --enable-frei0r --enable-libass --enable-libopencore-amrnb --enable-libopencore-amrwb --enable-libopenjpeg --enable-librtmp --enable-libspeex --enable-libsoxr --enable-videotoolbox --disable-libjack --disable-indev=jack\n",
      "  libavutil      56. 31.100 / 56. 31.100\n",
      "  libavcodec     58. 54.100 / 58. 54.100\n",
      "  libavformat    58. 29.100 / 58. 29.100\n",
      "  libavdevice    58.  8.100 / 58.  8.100\n",
      "  libavfilter     7. 57.100 /  7. 57.100\n",
      "  libavresample   4.  0.  0 /  4.  0.  0\n",
      "  libswscale      5.  5.100 /  5.  5.100\n",
      "  libswresample   3.  5.100 /  3.  5.100\n",
      "  libpostproc    55.  5.100 / 55.  5.100\n",
      "Input #0, mov,mp4,m4a,3gp,3g2,mj2, from 'Phoebe_dataset/videos/train/6.mp4':\n",
      "  Metadata:\n",
      "    major_brand     : isom\n",
      "    minor_version   : 512\n",
      "    compatible_brands: isomiso2avc1mp41\n",
      "    encoder         : Lavf58.12.100\n",
      "  Duration: 00:00:00.92, start: 0.000000, bitrate: 295 kb/s\n",
      "    Stream #0:0(und): Video: h264 (Main) (avc1 / 0x31637661), yuv420p(tv, bt709), 854x480 [SAR 1:1 DAR 427:240], 285 kb/s, 25.07 fps, 23.98 tbr, 90k tbn, 47.95 tbc (default)\n",
      "    Metadata:\n",
      "      handler_name    : VideoHandler\n",
      "Stream mapping:\n",
      "  Stream #0:0 -> #0:0 (h264 (native) -> mjpeg (native))\n",
      "Press [q] to stop, [?] for help\n",
      "\u001b[1;34m[swscaler @ 0x7f884abb6000] \u001b[0m\u001b[0;33mdeprecated pixel format used, make sure you did set range correctly\n",
      "\u001b[0mOutput #0, image2, to '/Users/leo/workspace/cmpt419/CMPT419-A2/Phoebe_dataset/processed_images/6_0.878.jpg':\n",
      "  Metadata:\n",
      "    major_brand     : isom\n",
      "    minor_version   : 512\n",
      "    compatible_brands: isomiso2avc1mp41\n",
      "    encoder         : Lavf58.29.100\n",
      "    Stream #0:0(und): Video: mjpeg, yuvj420p(pc), 854x480 [SAR 1:1 DAR 427:240], q=2-31, 200 kb/s, 23.98 fps, 23.98 tbn, 23.98 tbc (default)\n",
      "    Metadata:\n",
      "      handler_name    : VideoHandler\n",
      "      encoder         : Lavc58.54.100 mjpeg\n",
      "    Side data:\n",
      "      cpb: bitrate max/min/avg: 0/0/200000 buffer size: 0 vbv_delay: -1\n",
      "frame=    0 fps=0.0 q=0.0 Lsize=N/A time=00:00:00.00 bitrate=N/A speed=   0x    \n",
      "video:0kB audio:0kB subtitle:0kB other streams:0kB global headers:0kB muxing overhead: unknown\n",
      "\u001b[0;33mOutput file is empty, nothing was encoded \u001b[0m\u001b[0;33m(check -ss / -t / -frames parameters if used)\n",
      "\u001b[0m[[' face_id' ' timestamp' ' confidence' ' success' ' AU01_r' ' AU02_r'\n",
      "  ' AU04_r' ' AU05_r' ' AU06_r' ' AU07_r' ' AU09_r' ' AU10_r' ' AU12_r'\n",
      "  ' AU14_r' ' AU15_r' ' AU17_r' ' AU20_r' ' AU23_r' ' AU25_r' ' AU26_r'\n",
      "  ' AU45_r']\n",
      " ['0' '0.0' '0.98' '1' '0.0' '0.0' '0.0' '0.0' '1.14' '2.01' '0.0' '1.65'\n",
      "  '1.83' '0.29' '0.94' '0.81' '0.0' '0.2' '0.0' '0.16' '0.0']]\n"
     ]
    }
   ],
   "source": [
    "import numpy as np\n",
    "import os, os.path\n",
    "from typing import List, Dict\n",
    "import csv\n",
    "import uuid\n",
    "import re\n",
    "import time\n",
    "import datetime\n",
    "\n",
    "PATH_DATASET = \"Phoebe_dataset\"\n",
    "PATH_AU_INTENSITY = \"single_person_au_intensity\"\n",
    "PATH_AU_PRESENCE = \"single_person_au_presence\"\n",
    "PATH_TRAIN = \"train\"\n",
    "PATH_TEST = \"test\"\n",
    "PATH_TRAINING_VIDEOS = PATH_DATASET + \"/videos/train\"\n",
    "PATH_PROCESSED_IMAGES = PATH_DATASET + \"/processed_images\"\n",
    "\n",
    "IMAGE_STORE = {}\n",
    "\n",
    "def extract_image_for_timestamp(orig_filename: str, \n",
    "                                timestamp_sec: float):\n",
    "    \n",
    "    img_name = f\"{orig_filename}_{timestamp_sec}\"\n",
    "    img_file = f\"{img_name}.jpg\"\n",
    "    img_filepath = os.path.abspath(f\"{PATH_PROCESSED_IMAGES}/{img_file}\")\n",
    "    video_filepath = PATH_TRAINING_VIDEOS + \"/\" + f\"{orig_filename}.mp4\"\n",
    "    timestamp = datetime.timedelta(seconds=float(timestamp_sec))\n",
    "    print(timestamp)\n",
    "    \n",
    "    # Generate image if it does not exist\n",
    "    if not os.path.exists(img_filepath):\n",
    "        command = f\"ffmpeg -ss {str(timestamp)} -i {video_filepath} -frames:v 1 {img_filepath}\"\n",
    "        # print(command)\n",
    "        !$command;\n",
    "    \n",
    "    # Add to image store\n",
    "    global IMAGE_STORE\n",
    "    IMAGE_STORE[img_name] = img_filepath\n",
    "\n",
    "    \n",
    "def load_dataset(filename: str):\n",
    "    # Load csv with python library so that first column may be removed.\n",
    "    raw_data = []\n",
    "    with open(filename, \"r\") as csvfile:\n",
    "        reader = csv.reader(csvfile)\n",
    "        \n",
    "        for index, row in enumerate(reader):\n",
    "            new_row = row[1:]\n",
    "            if index != 0:\n",
    "                # Create image for every row and add to dictionnary {id: path}\n",
    "                filename_without_ext: str = re.sub(\"\\D\", \"\", filename)\n",
    "                extract_image_for_timestamp(filename_without_ext, timestamp_sec=new_row[1])\n",
    "            raw_data.append(new_row)\n",
    "    \n",
    "    data = np.array(raw_data)\n",
    "    print(data[0:2])\n",
    "    return data\n",
    "    \n",
    "    \n",
    "training_files: List[str] = [f\"./{PATH_DATASET}/{PATH_AU_INTENSITY}/{PATH_TRAIN}/{name}\" for \n",
    "                             name in os.listdir(f\"./{PATH_DATASET}/{PATH_AU_INTENSITY}/{PATH_TRAIN}\") if \n",
    "                             name[-4:] == \".csv\"]\n",
    "\n",
    "image_dict = {}\n",
    "dataset1 = load_dataset(training_files[0])\n",
    "# print(dataset1)\n",
    "\n",
    "# Load datasets\n",
    "full_dataset = []"
   ]
  },
  {
   "cell_type": "markdown",
   "metadata": {},
   "source": [
    "### Run dataset pipeline"
   ]
  },
  {
   "cell_type": "code",
   "execution_count": 1,
   "metadata": {},
   "outputs": [
    {
     "name": "stdout",
     "output_type": "stream",
     "text": [
      "hello\n"
     ]
    }
   ],
   "source": [
    "print(\"hello\")"
   ]
  },
  {
   "cell_type": "code",
   "execution_count": null,
   "metadata": {},
   "outputs": [],
   "source": []
  }
 ],
 "metadata": {
  "kernelspec": {
   "display_name": "Python 3",
   "language": "python",
   "name": "python3"
  },
  "language_info": {
   "codemirror_mode": {
    "name": "ipython",
    "version": 3
   },
   "file_extension": ".py",
   "mimetype": "text/x-python",
   "name": "python",
   "nbconvert_exporter": "python",
   "pygments_lexer": "ipython3",
   "version": "3.7.3"
  }
 },
 "nbformat": 4,
 "nbformat_minor": 4
}
